<mxfile host="app.diagrams.net" modified="2023-06-27T15:29:38.051Z" agent="Mozilla/5.0 (Windows NT 10.0; Win64; x64) AppleWebKit/537.36 (KHTML, like Gecko) Chrome/114.0.0.0 Safari/537.36 Edg/114.0.1823.58" etag="BfT6_CDd7edAiG9wVjAV" version="21.5.1" type="github">
  <diagram name="第 1 页" id="QGdPnFOqBnf435hKU0bY">
    <mxGraphModel dx="1461" dy="743" grid="1" gridSize="10" guides="1" tooltips="1" connect="1" arrows="1" fold="1" page="1" pageScale="1" pageWidth="827" pageHeight="1169" math="0" shadow="0">
      <root>
        <mxCell id="0" />
        <mxCell id="1" parent="0" />
        <mxCell id="kEd2MJKwX2ybO7bDBKuF-39" value="" style="rounded=0;whiteSpace=wrap;html=1;strokeColor=#B3B3B3;" parent="1" vertex="1">
          <mxGeometry x="80" y="40" width="130" height="60" as="geometry" />
        </mxCell>
        <mxCell id="kEd2MJKwX2ybO7bDBKuF-40" value="&lt;font face=&quot;Lucida Console&quot; color=&quot;#b3b3b3&quot;&gt;DoubleLinkList&lt;/font&gt;" style="text;html=1;strokeColor=none;fillColor=none;align=center;verticalAlign=middle;whiteSpace=wrap;rounded=0;" parent="1" vertex="1">
          <mxGeometry x="100" y="75" width="90" height="30" as="geometry" />
        </mxCell>
        <mxCell id="kEd2MJKwX2ybO7bDBKuF-14" value="" style="rounded=0;whiteSpace=wrap;html=1;strokeColor=#B3B3B3;" parent="1" vertex="1">
          <mxGeometry x="160" y="120" width="140" height="60" as="geometry" />
        </mxCell>
        <mxCell id="kEd2MJKwX2ybO7bDBKuF-16" value="" style="rounded=0;whiteSpace=wrap;html=1;strokeColor=#B3B3B3;" parent="1" vertex="1">
          <mxGeometry x="360" y="120" width="140" height="60" as="geometry" />
        </mxCell>
        <mxCell id="kEd2MJKwX2ybO7bDBKuF-34" style="edgeStyle=orthogonalEdgeStyle;rounded=0;orthogonalLoop=1;jettySize=auto;html=1;exitX=1;exitY=0.5;exitDx=0;exitDy=0;entryX=0;entryY=0.417;entryDx=0;entryDy=0;entryPerimeter=0;strokeColor=#67AB9F;" parent="1" edge="1">
          <mxGeometry relative="1" as="geometry">
            <mxPoint x="370" y="140.01999999999998" as="sourcePoint" />
            <mxPoint x="300" y="140" as="targetPoint" />
          </mxGeometry>
        </mxCell>
        <mxCell id="kEd2MJKwX2ybO7bDBKuF-1" value="" style="rounded=0;whiteSpace=wrap;html=1;" parent="1" vertex="1">
          <mxGeometry x="170" y="130" width="40" height="30" as="geometry" />
        </mxCell>
        <mxCell id="kEd2MJKwX2ybO7bDBKuF-3" value="" style="rounded=0;whiteSpace=wrap;html=1;" parent="1" vertex="1">
          <mxGeometry x="210" y="130" width="40" height="30" as="geometry" />
        </mxCell>
        <mxCell id="kEd2MJKwX2ybO7bDBKuF-30" style="edgeStyle=orthogonalEdgeStyle;rounded=0;orthogonalLoop=1;jettySize=auto;html=1;exitX=1;exitY=0.5;exitDx=0;exitDy=0;entryX=0;entryY=0.417;entryDx=0;entryDy=0;entryPerimeter=0;strokeColor=#67AB9F;" parent="1" edge="1">
          <mxGeometry relative="1" as="geometry">
            <mxPoint x="290" y="149.81" as="sourcePoint" />
            <mxPoint x="360" y="149.82999999999998" as="targetPoint" />
          </mxGeometry>
        </mxCell>
        <mxCell id="kEd2MJKwX2ybO7bDBKuF-4" value="" style="rounded=0;whiteSpace=wrap;html=1;" parent="1" vertex="1">
          <mxGeometry x="250" y="130" width="40" height="30" as="geometry" />
        </mxCell>
        <mxCell id="kEd2MJKwX2ybO7bDBKuF-5" value="&lt;font style=&quot;font-size: 6px;&quot; face=&quot;Lucida Console&quot;&gt;prev&lt;/font&gt;" style="text;html=1;strokeColor=none;fillColor=none;align=center;verticalAlign=middle;whiteSpace=wrap;rounded=0;" parent="1" vertex="1">
          <mxGeometry x="175" y="135" width="30" height="20" as="geometry" />
        </mxCell>
        <mxCell id="kEd2MJKwX2ybO7bDBKuF-6" value="&lt;font style=&quot;font-size: 6px;&quot; face=&quot;Lucida Console&quot;&gt;data&lt;/font&gt;" style="text;html=1;strokeColor=none;fillColor=none;align=center;verticalAlign=middle;whiteSpace=wrap;rounded=0;" parent="1" vertex="1">
          <mxGeometry x="215" y="135" width="30" height="20" as="geometry" />
        </mxCell>
        <mxCell id="kEd2MJKwX2ybO7bDBKuF-7" value="&lt;font style=&quot;font-size: 6px;&quot; face=&quot;Lucida Console&quot;&gt;next&lt;/font&gt;" style="text;html=1;strokeColor=none;fillColor=none;align=center;verticalAlign=middle;whiteSpace=wrap;rounded=0;" parent="1" vertex="1">
          <mxGeometry x="255" y="135" width="30" height="20" as="geometry" />
        </mxCell>
        <mxCell id="kEd2MJKwX2ybO7bDBKuF-15" value="&lt;font face=&quot;Lucida Console&quot; color=&quot;#b3b3b3&quot;&gt;Node&lt;/font&gt;" style="text;html=1;strokeColor=none;fillColor=none;align=center;verticalAlign=middle;whiteSpace=wrap;rounded=0;" parent="1" vertex="1">
          <mxGeometry x="200" y="155" width="60" height="30" as="geometry" />
        </mxCell>
        <mxCell id="kEd2MJKwX2ybO7bDBKuF-17" value="" style="rounded=0;whiteSpace=wrap;html=1;" parent="1" vertex="1">
          <mxGeometry x="370" y="130" width="40" height="30" as="geometry" />
        </mxCell>
        <mxCell id="kEd2MJKwX2ybO7bDBKuF-18" value="" style="rounded=0;whiteSpace=wrap;html=1;" parent="1" vertex="1">
          <mxGeometry x="410" y="130" width="40" height="30" as="geometry" />
        </mxCell>
        <mxCell id="kEd2MJKwX2ybO7bDBKuF-19" value="" style="rounded=0;whiteSpace=wrap;html=1;" parent="1" vertex="1">
          <mxGeometry x="450" y="130" width="40" height="30" as="geometry" />
        </mxCell>
        <mxCell id="kEd2MJKwX2ybO7bDBKuF-20" value="&lt;font style=&quot;font-size: 6px;&quot; face=&quot;Lucida Console&quot;&gt;prev&lt;/font&gt;" style="text;html=1;strokeColor=none;fillColor=none;align=center;verticalAlign=middle;whiteSpace=wrap;rounded=0;" parent="1" vertex="1">
          <mxGeometry x="375" y="135" width="30" height="20" as="geometry" />
        </mxCell>
        <mxCell id="kEd2MJKwX2ybO7bDBKuF-21" value="&lt;font style=&quot;font-size: 6px;&quot; face=&quot;Lucida Console&quot;&gt;data&lt;/font&gt;" style="text;html=1;strokeColor=none;fillColor=none;align=center;verticalAlign=middle;whiteSpace=wrap;rounded=0;" parent="1" vertex="1">
          <mxGeometry x="415" y="135" width="30" height="20" as="geometry" />
        </mxCell>
        <mxCell id="kEd2MJKwX2ybO7bDBKuF-22" value="&lt;font style=&quot;font-size: 6px;&quot; face=&quot;Lucida Console&quot;&gt;next&lt;/font&gt;" style="text;html=1;strokeColor=none;fillColor=none;align=center;verticalAlign=middle;whiteSpace=wrap;rounded=0;" parent="1" vertex="1">
          <mxGeometry x="455" y="135" width="30" height="20" as="geometry" />
        </mxCell>
        <mxCell id="kEd2MJKwX2ybO7bDBKuF-23" value="&lt;font face=&quot;Lucida Console&quot; color=&quot;#b3b3b3&quot;&gt;Node&lt;/font&gt;" style="text;html=1;strokeColor=none;fillColor=none;align=center;verticalAlign=middle;whiteSpace=wrap;rounded=0;" parent="1" vertex="1">
          <mxGeometry x="400" y="155" width="60" height="30" as="geometry" />
        </mxCell>
        <mxCell id="kEd2MJKwX2ybO7bDBKuF-25" value="" style="endArrow=classic;html=1;rounded=0;strokeColor=#67AB9F;" parent="1" edge="1">
          <mxGeometry width="50" height="50" relative="1" as="geometry">
            <mxPoint x="189.81" y="160" as="sourcePoint" />
            <mxPoint x="190" y="200" as="targetPoint" />
          </mxGeometry>
        </mxCell>
        <mxCell id="kEd2MJKwX2ybO7bDBKuF-27" value="&lt;font face=&quot;Lucida Console&quot; color=&quot;#67ab9f&quot;&gt;None&lt;/font&gt;" style="text;html=1;strokeColor=none;fillColor=none;align=center;verticalAlign=middle;whiteSpace=wrap;rounded=0;" parent="1" vertex="1">
          <mxGeometry x="160" y="192" width="60" height="30" as="geometry" />
        </mxCell>
        <mxCell id="kEd2MJKwX2ybO7bDBKuF-42" style="edgeStyle=orthogonalEdgeStyle;rounded=0;orthogonalLoop=1;jettySize=auto;html=1;exitX=0;exitY=0.5;exitDx=0;exitDy=0;entryX=0;entryY=0.5;entryDx=0;entryDy=0;strokeColor=#67AB9F;" parent="1" source="kEd2MJKwX2ybO7bDBKuF-35" target="kEd2MJKwX2ybO7bDBKuF-14" edge="1">
          <mxGeometry relative="1" as="geometry">
            <Array as="points">
              <mxPoint x="70" y="65" />
              <mxPoint x="70" y="150" />
            </Array>
          </mxGeometry>
        </mxCell>
        <mxCell id="kEd2MJKwX2ybO7bDBKuF-35" value="" style="rounded=0;whiteSpace=wrap;html=1;" parent="1" vertex="1">
          <mxGeometry x="100" y="50" width="40" height="30" as="geometry" />
        </mxCell>
        <mxCell id="kEd2MJKwX2ybO7bDBKuF-36" value="&lt;font face=&quot;Lucida Console&quot;&gt;head&lt;/font&gt;" style="text;html=1;strokeColor=none;fillColor=none;align=center;verticalAlign=middle;whiteSpace=wrap;rounded=0;" parent="1" vertex="1">
          <mxGeometry x="90" y="50" width="60" height="30" as="geometry" />
        </mxCell>
        <mxCell id="kEd2MJKwX2ybO7bDBKuF-37" value="" style="rounded=0;whiteSpace=wrap;html=1;" parent="1" vertex="1">
          <mxGeometry x="140" y="50" width="50" height="30" as="geometry" />
        </mxCell>
        <mxCell id="kEd2MJKwX2ybO7bDBKuF-38" value="&lt;font face=&quot;Lucida Console&quot;&gt;length&lt;/font&gt;" style="text;html=1;strokeColor=none;fillColor=none;align=center;verticalAlign=middle;whiteSpace=wrap;rounded=0;" parent="1" vertex="1">
          <mxGeometry x="135" y="50" width="60" height="30" as="geometry" />
        </mxCell>
      </root>
    </mxGraphModel>
  </diagram>
</mxfile>
